<svg viewBox="0 0 220 220" xmlns="http://www.w3.org/2000/svg">
<rect width="220" height="220" rx="14" fill="#12151b"/>
<path d="M51.3,121.4 L71.2,83.1 L74.7,74.2 L87.2,36.6 L90.6,29.7 L93.3,27.0 L96.5,26.0 L102.0,27.4 L164.5,62.9 L167.3,64.7 L170.1,67.4 L171.0,70.7 L171.0,72.5 L170.1,75.9 L168.2,79.5 L165.2,81.8 L161.7,82.2 L157.4,80.9 L113.9,60.8 L110.7,60.0 L107.9,60.7 L105.4,62.6 L103.8,65.2 L103.2,67.8 L104.0,70.3 L106.2,72.0 L132.9,87.2 L135.2,88.9 L136.9,91.4 L137.3,92.8 L137.3,96.3 L136.3,99.7 L134.4,103.0 L131.5,106.1 L127.4,108.8 L123.7,110.5 L117.3,110.8 L114.5,110.2 L101.8,104.6 L98.2,103.8 L94.5,103.8 L91.2,104.8 L88.4,106.9 L84.4,112.0 L82.6,115.0 L81.7,118.0 L82.6,120.9 L85.3,123.0 L109.5,127.1 L148.4,126.4 L150.4,126.7 L153.9,129.0 L156.9,133.2 L157.7,137.8 L156.5,142.7 L153.7,146.6 L149.6,148.2 L147.3,148.3 L127.9,145.2 L123.6,145.1 L121.9,145.7 L118.0,148.5 L115.7,152.2 L115.5,153.9 L115.7,156.0 L117.6,159.3 L122.1,163.3 L137.4,168.0 L150.1,171.0 L154.4,172.8 L156.1,174.1 L158.9,177.5 L159.6,179.4 L159.4,183.6 L157.8,187.5 L155.3,190.8 L151.8,193.4 L147.3,194.0 L144.9,193.4 L99.0,169.9 L96.3,167.4 L94.4,164.1 L92.2,151.8 L90.6,148.5 L88.4,145.9 L85.0,144.1 L83.1,143.7 L63.3,141.7 L57.5,139.4 L52.4,135.5 L50.5,133.3 L49.0,128.5 L50.1,123.8 L51.3,121.4" fill="none" stroke="#c9ced8" stroke-width="3" stroke-linejoin="round" stroke-linecap="round"/>
<circle cx="51.3" cy="121.4" r="7.0" fill="#e02424" stroke="#fff" stroke-width="1.5"/><text x="51.3" y="121.4" font-family="Helvetica,Arial,sans-serif" font-size="5.5" font-weight="700" fill="#fff" text-anchor="middle" dominant-baseline="central">S/F</text>
</svg>
