<svg viewBox="0 0 220 220" xmlns="http://www.w3.org/2000/svg">
<rect width="220" height="220" rx="14" fill="#12151b"/>
<path d="M132.1,147.9 L66.2,192.6 L58.2,194.0 L51.2,187.9 L36.6,129.5 L37.1,115.4 L49.8,90.5 L66.7,72.6 L72.8,72.6 L77.1,79.2 L64.8,138.5 L66.0,152.5 L77.1,158.7 L89.8,153.5 L92.1,140.4 L91.2,97.5 L95.4,91.9 L102.9,93.3 L104.8,106.5 L106.9,130.4 L117.1,135.5 L131.2,131.9 L137.3,124.8 L142.3,112.9 L132.1,98.5 L71.9,41.1 L69.5,32.6 L76.6,26.5 L90.2,26.0 L102.0,35.9 L116.6,47.2 L125.1,49.5 L150.9,33.5 L156.1,33.5 L158.5,39.6 L156.6,101.3 L159.4,110.2 L179.6,106.9 L183.4,111.6 L178.7,117.8 L132.1,147.9" fill="none" stroke="#c9ced8" stroke-width="3" stroke-linejoin="round" stroke-linecap="round"/>
<circle cx="69.1" cy="122.2" r="5.5" fill="#2f6feb" stroke="#12151b" stroke-width="1.5"/><text x="69.1" y="122.2" font-family="Helvetica,Arial,sans-serif" font-size="6.9" font-weight="700" fill="#fff" text-anchor="middle" dominant-baseline="central">2</text>
<circle cx="102.4" cy="75.7" r="5.5" fill="#2f6feb" stroke="#12151b" stroke-width="1.5"/><text x="102.4" y="75.7" font-family="Helvetica,Arial,sans-serif" font-size="6.9" font-weight="700" fill="#fff" text-anchor="middle" dominant-baseline="central">3</text>
<circle cx="156.6" cy="81.1" r="5.5" fill="#2f6feb" stroke="#12151b" stroke-width="1.5"/><text x="156.6" y="81.1" font-family="Helvetica,Arial,sans-serif" font-size="6.9" font-weight="700" fill="#fff" text-anchor="middle" dominant-baseline="central">4</text>
<circle cx="114.1" cy="166.6" r="7.0" fill="#e02424" stroke="#fff" stroke-width="1.5"/><text x="114.1" y="166.6" font-family="Helvetica,Arial,sans-serif" font-size="5.5" font-weight="700" fill="#fff" text-anchor="middle" dominant-baseline="central">S/F</text>
</svg>